<svg width="365" height="364" viewBox="0 0 365 364" fill="none" xmlns="http://www.w3.org/2000/svg">
<path d="M227.809 315.392C228.89 315.033 229.98 315.159 230.946 315.77C231.869 316.325 232.459 317.179 232.694 318.223C232.922 319.239 232.764 320.241 232.203 321.128L232.201 321.127C231.666 322.018 230.837 322.577 229.839 322.801C229.771 322.817 229.701 322.832 229.633 322.847C229.566 322.862 229.499 322.877 229.433 322.892C229.363 322.908 229.29 322.917 229.218 322.923L220.301 335.726L234.715 349.795C234.871 349.752 235.022 349.707 235.169 349.661C235.557 349.505 235.923 349.369 236.267 349.255C237.327 348.903 238.396 349.016 239.35 349.599C240.32 350.134 240.959 350.991 241.203 352.074C241.449 353.172 241.228 354.233 240.56 355.138L240.559 355.137C239.945 356.008 239.066 356.543 238.02 356.723C237.996 356.727 237.971 356.731 237.947 356.734C236.93 356.858 236.034 356.97 235.258 357.075C234.503 357.211 233.768 357.36 233.054 357.52C232.376 357.673 231.683 357.844 230.976 358.037C230.264 358.267 229.439 358.539 228.502 358.854C228.478 358.862 228.453 358.87 228.429 358.877C227.403 359.165 226.383 359.032 225.452 358.532C225.437 358.524 225.422 358.515 225.407 358.507C224.456 357.952 223.85 357.086 223.612 356.025C223.386 355.018 223.513 354.006 224.103 353.122C224.543 352.427 225.151 351.915 225.893 351.624L215.949 341.963L212.304 347.276L213.914 354.44C213.954 354.428 213.994 354.418 214.034 354.406C214.525 354.222 215.004 354.076 215.468 353.971C216.475 353.746 217.455 353.926 218.321 354.474L218.32 354.475C219.211 355.01 219.77 355.838 219.995 356.837C220.241 357.933 220.022 358.995 219.353 359.902L219.352 359.901C218.737 360.774 217.856 361.306 216.812 361.486C216.784 361.491 216.756 361.495 216.728 361.498C215.78 361.606 214.934 361.709 214.193 361.806C213.508 361.927 212.844 362.06 212.202 362.204C211.594 362.34 210.935 362.504 210.228 362.697C209.547 362.92 208.738 363.189 207.801 363.504C207.778 363.512 207.753 363.519 207.729 363.526C206.703 363.814 205.683 363.682 204.752 363.181C204.737 363.173 204.721 363.165 204.707 363.156C203.755 362.602 203.15 361.736 202.912 360.674C202.673 359.613 202.85 358.571 203.473 357.663L203.503 357.621C204.137 356.761 205.02 356.22 206.086 356.083L206.4 356.035L200.415 329.385C200.232 329.442 200.045 329.493 199.854 329.536C198.838 329.764 197.837 329.606 196.951 329.045C196.934 329.034 196.917 329.023 196.901 329.011C196.062 328.432 195.536 327.599 195.316 326.619C195.082 325.576 195.248 324.55 195.846 323.653C196.459 322.686 197.392 322.108 198.521 321.97H198.526C199.513 321.854 200.363 321.749 201.076 321.659C201.792 321.531 202.453 321.399 203.059 321.263C203.702 321.119 204.359 320.954 205.029 320.77C205.74 320.541 206.549 320.274 207.454 319.966L207.463 319.963C208.533 319.608 209.613 319.725 210.574 320.323C211.53 320.859 212.158 321.71 212.399 322.782C212.645 323.879 212.426 324.94 211.757 325.846L211.756 325.845C211.142 326.717 210.262 327.25 209.218 327.43C209.154 327.441 209.089 327.448 209.024 327.451C208.734 327.463 208.426 327.504 208.101 327.577C208.061 327.586 208.019 327.593 207.978 327.598C207.947 327.603 207.916 327.606 207.887 327.61L210.082 337.378L218.475 325.165C217.887 325.113 217.317 324.923 216.789 324.589C215.903 324.028 215.332 323.192 215.103 322.175C214.865 321.114 215.041 320.071 215.664 319.164C216.302 318.23 217.23 317.653 218.359 317.515C219.407 317.384 220.319 317.266 221.095 317.162C221.851 317.026 222.587 316.877 223.302 316.716C223.981 316.564 224.674 316.392 225.378 316.2C226.088 315.971 226.895 315.703 227.799 315.396L227.809 315.392ZM136.285 314.812C136.969 314.628 137.652 314.688 138.287 314.897C138.916 315.105 139.493 315.465 139.923 316.021C140.35 316.573 140.557 317.219 140.618 317.873L144.474 353.806C144.528 353.819 144.58 353.833 144.632 353.844C145.033 353.898 145.423 353.982 145.795 354.105C146.766 354.425 147.531 355.057 148.005 355.965C148.534 356.916 148.57 357.957 148.241 358.955C147.894 360.006 147.178 360.794 146.164 361.233L146.165 361.234C145.175 361.688 144.127 361.696 143.124 361.309C143.098 361.299 143.072 361.289 143.047 361.278C141.257 360.472 139.846 359.903 138.798 359.558C137.651 359.18 136.178 358.799 134.367 358.418C134.337 358.411 134.307 358.404 134.278 358.396C133.304 358.128 132.509 357.558 131.98 356.703L131.878 356.528C131.346 355.564 131.272 354.51 131.612 353.477C131.93 352.513 132.532 351.698 133.474 351.222C134.352 350.78 135.295 350.697 136.225 350.958L136.412 351.014L136.667 351.106L136.314 347.681L120.393 342.437L118.073 344.982C118.161 345.008 118.249 345.033 118.335 345.061C119.305 345.381 120.077 346.016 120.523 346.956C121.024 347.892 121.054 348.911 120.731 349.892C120.391 350.926 119.704 351.73 118.704 352.189C117.715 352.643 116.668 352.653 115.663 352.265C115.638 352.256 115.613 352.246 115.589 352.235C113.762 351.416 112.35 350.847 111.337 350.513C110.156 350.125 108.683 349.744 106.909 349.374C106.878 349.367 106.847 349.36 106.817 349.351C105.779 349.066 104.946 348.439 104.392 347.512C104.383 347.498 104.375 347.482 104.367 347.467C103.835 346.503 103.761 345.45 104.101 344.417L104.167 344.231C104.509 343.326 105.127 342.59 106.04 342.165C106.97 341.704 107.971 341.648 108.951 341.97C109.327 342.094 109.687 342.234 110.027 342.389C110.106 342.425 110.185 342.462 110.264 342.498L134.608 315.877C135.051 315.384 135.607 314.995 136.285 314.812ZM248.836 305.373C249.52 305.451 250.12 305.747 250.627 306.151L279.106 328.436C279.153 328.407 279.2 328.379 279.245 328.349C279.564 328.099 279.897 327.879 280.242 327.699C281.164 327.217 282.17 327.111 283.171 327.424C284.194 327.718 284.944 328.409 285.422 329.323C285.935 330.304 286.002 331.367 285.61 332.4L285.611 332.401C285.247 333.426 284.526 334.184 283.547 334.634C283.523 334.646 283.497 334.657 283.471 334.667C281.645 335.389 280.254 336.006 279.277 336.517C278.206 337.077 276.905 337.868 275.37 338.901C275.344 338.918 275.318 338.934 275.292 338.95C274.363 339.495 273.33 339.656 272.281 339.37C271.219 339.08 270.411 338.399 269.907 337.434C269.437 336.535 269.271 335.535 269.587 334.527C269.901 333.525 270.563 332.758 271.485 332.276C271.564 332.235 271.647 332.197 271.728 332.157L269.026 330.023L254.17 337.788L254.379 341.225C254.459 341.181 254.538 341.135 254.618 341.093C255.524 340.62 256.52 340.507 257.507 340.844C258.527 341.139 259.277 341.828 259.754 342.741C260.259 343.706 260.356 344.758 259.989 345.795C259.625 346.82 258.903 347.577 257.925 348.028C257.901 348.039 257.877 348.049 257.852 348.059C255.992 348.799 254.6 349.416 253.654 349.911C252.552 350.487 251.252 351.278 249.75 352.294C249.724 352.311 249.697 352.328 249.67 352.343C248.742 352.889 247.711 353.049 246.662 352.8C246.645 352.797 246.628 352.792 246.612 352.788C245.55 352.497 244.743 351.816 244.239 350.852C243.761 349.937 243.622 348.926 243.964 347.92C244.279 346.918 244.94 346.153 245.862 345.671C246.211 345.488 246.562 345.326 246.913 345.19C246.994 345.158 247.076 345.125 247.158 345.093L245.026 309.084C244.982 308.423 245.09 307.751 245.431 307.138C245.776 306.52 246.296 306.072 246.888 305.762C247.476 305.455 248.137 305.293 248.836 305.373ZM175.721 338.236C177.398 338.3 178.839 338.98 179.966 340.222L180.18 340.455C181.216 341.636 181.723 343.057 181.663 344.645C181.598 346.338 180.907 347.8 179.655 348.961C178.427 350.099 176.93 350.651 175.253 350.588C173.578 350.524 172.121 349.862 170.955 348.651C170.942 348.638 170.929 348.624 170.917 348.61C169.797 347.355 169.249 345.852 169.312 344.177C169.376 342.502 170.037 341.051 171.266 339.912C172.518 338.751 174.029 338.172 175.721 338.236ZM110.38 304.517C111.466 304.297 112.525 304.503 113.42 305.189C114.207 305.791 114.888 306.306 115.462 306.738C116.066 307.147 116.649 307.523 117.21 307.867C117.771 308.211 118.356 308.551 118.964 308.885C119.295 309.049 119.648 309.223 120.026 309.405L121.266 309.998L121.275 310.003C122.3 310.498 122.996 311.347 123.263 312.46C123.539 313.502 123.366 314.525 122.807 315.437C122.274 316.306 121.492 316.909 120.507 317.16L120.307 317.206C119.241 317.42 118.22 317.19 117.331 316.582C117.283 316.549 117.237 316.514 117.194 316.476C117.022 316.327 116.838 316.181 116.645 316.037L106.258 332.983C105.062 334.934 103.622 336.528 101.926 337.729L101.925 337.728C100.318 338.889 98.5783 339.702 96.7144 340.149C94.9145 340.581 93.1132 340.662 91.3219 340.386C89.5616 340.129 87.9321 339.551 86.4517 338.643C83.9409 337.104 81.9869 335.204 80.65 332.927C80.6468 332.922 80.6443 332.916 80.6412 332.911C79.324 330.6 78.7548 328.146 78.9762 325.586C79.0583 324.635 79.234 323.713 79.5045 322.822L79.524 322.763C79.8256 321.899 80.2034 321.09 80.6617 320.342C81.6318 318.76 82.8653 317.547 84.3873 316.803L84.4166 316.79C86.0803 316.021 87.7858 316.058 89.3424 317.011C90.6091 317.788 91.4979 318.909 91.692 320.385C91.8568 321.64 91.6185 322.837 90.9605 323.911C90.431 324.775 89.6876 325.429 88.7711 325.864L88.7721 325.866C88.08 326.219 87.347 326.362 86.6031 326.33C86.5951 326.6 86.6067 326.911 86.6451 327.265C86.7179 327.937 86.9922 328.718 87.5504 329.621C88.0955 330.42 89.0222 331.27 90.4391 332.138C91.3498 332.697 92.2539 332.975 93.1705 333.009H93.565C94.7116 332.956 95.8227 332.612 96.9146 331.948C98.007 331.265 98.9578 330.296 99.7545 328.996L110.137 312.054C109.921 311.948 109.702 311.845 109.478 311.751C109.434 311.732 109.39 311.711 109.348 311.688C108.412 311.18 107.773 310.375 107.454 309.368C107.449 309.351 107.444 309.335 107.439 309.318C107.143 308.259 107.31 307.215 107.879 306.287C108.448 305.359 109.301 304.734 110.38 304.517ZM125.848 336.476L135.467 339.644L134.189 327.34L125.848 336.476ZM253.698 329.72L262.672 325.029L252.956 317.372L253.698 329.72ZM81.1773 282.007C81.7919 281.762 82.4639 281.658 83.1519 281.794C83.8465 281.931 84.4328 282.287 84.9098 282.755C85.3834 283.219 85.7414 283.798 85.8814 284.487C86.0187 285.163 85.9214 285.825 85.693 286.431L85.6939 286.432L73.276 320.395C73.3193 320.431 73.3612 320.468 73.4039 320.502C73.7384 320.726 74.0497 320.973 74.3287 321.247C75.073 321.977 75.4823 322.903 75.4928 323.951C75.5285 325.011 75.1062 325.939 74.3824 326.677C73.6065 327.469 72.6147 327.859 71.5113 327.804C71.5094 327.804 71.5073 327.804 71.5055 327.804C71.4906 327.804 71.4754 327.804 71.4605 327.803C70.395 327.761 69.4697 327.311 68.7506 326.532C68.732 326.512 68.7143 326.491 68.6969 326.469C67.446 324.955 66.4304 323.822 65.6432 323.049C64.7803 322.203 63.6269 321.21 62.1705 320.068C62.1467 320.049 62.1238 320.029 62.1012 320.009C61.3471 319.34 60.8838 318.479 60.7867 317.477L60.7721 317.275C60.7205 316.174 61.1203 315.195 61.8814 314.419C62.5918 313.694 63.4921 313.229 64.5484 313.218L64.7437 313.221C65.7139 313.259 66.5772 313.647 67.274 314.33C67.3382 314.393 67.3999 314.46 67.4635 314.526L68.6598 311.297L56.692 299.559L53.4869 300.819C53.5535 300.881 53.6213 300.941 53.6851 301.004C54.4084 301.713 54.8188 302.614 54.8121 303.641C54.8571 304.716 54.4312 305.654 53.7017 306.398L53.7008 306.399C52.9387 307.176 51.9682 307.592 50.8687 307.562C49.7817 307.532 48.8385 307.08 48.108 306.289C48.09 306.269 48.0722 306.249 48.0553 306.228C46.7778 304.687 45.7628 303.554 45.0006 302.806C44.1131 301.936 42.9594 300.944 41.5299 299.828C41.5052 299.809 41.481 299.788 41.4576 299.767C40.6511 299.052 40.1826 298.12 40.0953 297.046C40.0939 297.029 40.0932 297.012 40.0924 296.995C40.0411 295.895 40.4394 294.917 41.2008 294.14C41.9238 293.403 42.8435 292.96 43.9059 292.975C44.9553 292.965 45.8882 293.358 46.6314 294.087C46.9138 294.363 47.1755 294.648 47.4127 294.938C47.4679 295.006 47.5234 295.074 47.5787 295.141L81.1773 282.007ZM286.887 278.428C287.987 278.473 288.929 278.956 289.636 279.782L289.764 279.939C290.342 280.681 290.629 281.554 290.569 282.501L290.55 282.705C290.426 283.786 289.892 284.686 289.041 285.344C288.995 285.38 288.947 285.412 288.898 285.442C288.703 285.56 288.507 285.69 288.31 285.829L301.24 300.926C302.728 302.665 303.802 304.526 304.422 306.509C305.032 308.396 305.269 310.301 305.121 312.212C304.978 314.057 304.501 315.796 303.688 317.416C302.902 319.012 301.85 320.384 300.531 321.513C298.294 323.428 295.886 324.704 293.308 325.276C293.302 325.277 293.295 325.279 293.289 325.28C290.684 325.822 288.174 325.607 285.806 324.609C284.927 324.238 284.104 323.787 283.339 323.256C283.323 323.244 283.306 323.232 283.29 323.219C282.561 322.667 281.907 322.059 281.337 321.392C280.129 319.982 279.354 318.435 279.115 316.758C279.113 316.748 279.112 316.737 279.111 316.726C278.891 314.907 279.451 313.295 280.838 312.107C281.968 311.14 283.307 310.64 284.771 310.91C286.016 311.139 287.081 311.735 287.9 312.691C288.571 313.475 288.971 314.404 289.095 315.433C289.205 316.179 289.115 316.9 288.862 317.58C289.116 317.67 289.415 317.756 289.764 317.829C290.424 317.966 291.25 317.946 292.278 317.694C293.207 317.422 294.304 316.802 295.569 315.718C296.495 314.925 297.072 314.027 297.358 313.013C297.623 312.042 297.668 311.029 297.476 309.956L297.379 309.492C297.066 308.245 296.435 307.045 295.445 305.888L282.521 290.796C282.353 290.968 282.188 291.146 282.029 291.33C281.997 291.366 281.964 291.401 281.929 291.434C281.157 292.169 280.194 292.529 279.137 292.523C279.12 292.523 279.103 292.523 279.086 292.522C277.987 292.478 277.046 291.997 276.337 291.17C275.674 290.395 275.341 289.464 275.405 288.45L275.423 288.246C275.548 287.144 276.07 286.198 277.001 285.557C277.812 284.996 278.51 284.509 279.095 284.097C279.671 283.648 280.21 283.207 280.712 282.778C281.212 282.349 281.716 281.897 282.221 281.421C282.743 280.885 283.331 280.269 283.987 279.574L284.142 279.419C284.894 278.708 285.84 278.362 286.887 278.428ZM295.529 263.672C296.178 263.44 296.847 263.441 297.48 263.581L332.864 271.046C332.892 271 332.922 270.955 332.948 270.91C333.124 270.544 333.326 270.199 333.558 269.883C334.163 269.06 334.999 268.528 336.009 268.357C337.078 268.149 338.078 268.438 338.925 269.06C339.818 269.715 340.346 270.64 340.449 271.74C340.574 272.821 340.259 273.819 339.58 274.654C339.562 274.675 339.544 274.696 339.526 274.716C338.205 276.17 337.227 277.337 336.575 278.226C335.86 279.2 335.041 280.482 334.118 282.086C334.103 282.112 334.087 282.138 334.07 282.164C333.477 283.062 332.62 283.663 331.551 283.868C330.47 284.075 329.444 283.818 328.567 283.174C327.75 282.575 327.16 281.751 327 280.706C326.84 279.668 327.097 278.689 327.712 277.849C327.766 277.777 327.823 277.706 327.878 277.634L324.512 276.909L314.595 290.423L316.296 293.417C316.349 293.342 316.399 293.266 316.453 293.193C317.054 292.374 317.89 291.84 318.91 291.702C319.965 291.507 320.952 291.797 321.79 292.412C322.666 293.055 323.218 293.956 323.345 295.049C323.47 296.13 323.155 297.128 322.475 297.964C322.458 297.984 322.441 298.004 322.423 298.024C321.079 299.508 320.102 300.675 319.47 301.536C318.735 302.538 317.916 303.821 317.015 305.393C317 305.42 316.983 305.447 316.965 305.473C316.373 306.372 315.518 306.969 314.466 307.209C314.45 307.212 314.432 307.216 314.416 307.219C313.334 307.427 312.308 307.169 311.431 306.526C310.599 305.915 310.031 305.069 309.895 304.014C309.736 302.977 309.992 301.998 310.608 301.159C310.843 300.838 311.088 300.54 311.34 300.265C311.399 300.201 311.458 300.136 311.517 300.072L293.743 268.68C293.412 268.107 293.214 267.456 293.251 266.756C293.288 266.048 293.558 265.417 293.953 264.879C294.345 264.344 294.867 263.908 295.529 263.672ZM64.2174 296.621L71.4488 303.713L75.7369 292.108L64.2174 296.621ZM49.0787 240.139C49.9969 239.593 51.0218 239.433 52.0601 239.722C52.0659 239.724 52.073 239.726 52.0787 239.727C52.0906 239.731 52.1029 239.733 52.1148 239.737C53.1292 240.009 53.9123 240.641 54.3971 241.553L54.4918 241.743L54.4937 241.748C54.911 242.649 55.2732 243.425 55.5807 244.076C55.9245 244.718 56.255 245.305 56.5719 245.838C56.9078 246.402 57.2674 246.975 57.65 247.554C57.8668 247.853 58.0999 248.172 58.3492 248.509L59.1695 249.612L59.1764 249.62C59.8387 250.517 60.063 251.567 59.8062 252.653C59.5998 253.745 58.9821 254.618 58.0279 255.186C57.0765 255.752 56.0182 255.878 54.9644 255.543C53.9207 255.236 53.1251 254.557 52.6217 253.605C52.5914 253.548 52.5652 253.488 52.5426 253.427C52.4413 253.156 52.3068 252.876 52.1363 252.589C52.1151 252.554 52.0949 252.517 52.0767 252.48C52.0629 252.452 52.0489 252.424 52.0357 252.397L43.4312 257.514L57.649 261.703C57.5153 261.127 57.5193 260.526 57.6734 259.92C57.9318 258.904 58.5489 258.102 59.4449 257.569C60.381 257.012 61.4261 256.858 62.481 257.168C63.5657 257.484 64.4006 258.185 64.8824 259.214L66.0719 261.713C66.4356 262.389 66.8039 263.042 67.1773 263.67C67.5312 264.264 67.9094 264.867 68.3101 265.477C68.5268 265.776 68.7594 266.094 69.0084 266.431L69.8287 267.534L69.8355 267.542C70.5003 268.442 70.7236 269.496 70.4625 270.587L70.4635 270.588C70.232 271.663 69.5962 272.508 68.6607 273.064C67.7822 273.587 66.8034 273.749 65.8062 273.511C65.7936 273.509 65.7808 273.505 65.7682 273.503C65.7618 273.501 65.755 273.5 65.7486 273.499C64.7348 273.267 63.9465 272.65 63.4234 271.771C63.3871 271.71 63.3511 271.649 63.316 271.59C63.2807 271.53 63.2459 271.472 63.2115 271.414C63.1745 271.352 63.1434 271.286 63.1158 271.219L48.1754 266.718L39.276 284.787C39.364 284.921 39.4529 285.049 39.5416 285.173C39.8094 285.491 40.0547 285.798 40.2721 286.092C40.9356 286.991 41.1586 288.042 40.9019 289.127C40.6956 290.217 40.0788 291.092 39.1236 291.66C38.1722 292.226 37.1139 292.351 36.0601 292.016C35.015 291.709 34.2203 291.028 33.7174 290.078C33.7058 290.056 33.6946 290.034 33.6842 290.011C33.251 289.084 32.8638 288.267 32.523 287.561C32.1593 286.885 31.7911 286.232 31.4176 285.604C31.0621 285.006 30.6834 284.402 30.2818 283.791C29.842 283.184 29.3271 282.484 28.7369 281.691C28.7219 281.671 28.707 281.65 28.693 281.629C28.1016 280.744 27.9085 279.735 28.0953 278.693L28.1051 278.642C28.3365 277.566 28.9728 276.722 29.9078 276.166L30.0787 276.069C30.9226 275.615 31.8612 275.464 32.8189 275.732L32.8199 275.731C33.6158 275.933 34.2919 276.351 34.8004 276.966L40.8971 264.515L34.7125 262.701L28.4029 266.454C28.4267 266.488 28.4494 266.523 28.4732 266.557C28.8004 266.968 29.0883 267.378 29.3316 267.787C29.8583 268.672 29.9923 269.659 29.7398 270.653L29.7389 270.652C29.5075 271.666 28.8918 272.455 28.0123 272.978C27.061 273.544 26.0033 273.669 24.9498 273.335C23.9055 273.028 23.1095 272.348 22.606 271.396C22.5929 271.371 22.5807 271.346 22.5689 271.32C22.1717 270.453 21.8115 269.684 21.4898 269.01C21.1617 268.395 20.83 267.802 20.4928 267.235C20.1746 266.7 19.8143 266.127 19.4127 265.516C18.989 264.937 18.482 264.251 17.8912 263.457C17.8762 263.436 17.8613 263.415 17.8473 263.394C17.255 262.508 17.064 261.498 17.2506 260.458L17.2603 260.407C17.492 259.331 18.1284 258.487 19.0631 257.931C19.9977 257.376 21.0425 257.218 22.0992 257.529C22.1155 257.534 22.1319 257.539 22.148 257.545C23.1621 257.881 23.9503 258.553 24.4117 259.522L24.5543 259.807L48.0299 245.844C47.92 245.689 47.8145 245.526 47.7144 245.358C47.1819 244.463 47.0215 243.463 47.2799 242.446L47.2965 242.387C47.5871 241.41 48.2152 240.653 49.0787 240.139ZM310.618 283.388L316.609 275.224L304.514 272.63L310.618 283.388ZM213.064 94.0885C214.821 92.3313 217.671 92.3312 219.428 94.0885L219.588 94.2565C221.184 96.0228 221.13 98.7495 219.428 100.452L199.578 120.301L199.579 120.302C195.669 124.302 193.479 129.673 193.479 135.266L193.486 135.79C193.618 141.191 195.788 146.35 199.571 150.223L204.157 154.809L239.177 119.79C240.935 118.032 243.783 118.032 245.541 119.79L245.701 119.958C247.296 121.724 247.243 124.451 245.541 126.153L210.52 161.172L215.067 165.719L215.458 166.094C219.416 169.789 224.635 171.85 230.063 171.85C235.666 171.85 241.047 169.653 245.048 165.731L264.878 145.901C266.635 144.144 269.484 144.144 271.242 145.901C272.999 147.658 272.999 150.508 271.242 152.265L251.347 172.159C245.663 177.73 238.022 180.85 230.063 180.85C222.104 180.85 214.463 177.73 208.779 172.159L204.156 167.536L188.42 183.271L271.242 266.088C272.944 267.79 272.997 270.518 271.402 272.284L271.242 272.452C269.54 274.154 266.813 274.207 265.046 272.612L264.878 272.452L207.741 215.318L197.136 225.923C197.057 226.003 196.981 226.072 196.918 226.128C188.453 233.533 174.544 233.822 166.645 225.923L155.51 214.79C155.324 215.2 155.074 215.588 154.758 215.938L154.598 216.106L100.23 270.474C98.4728 272.231 95.6241 272.231 93.8668 270.474C92.1097 268.717 92.1094 265.867 93.8668 264.11L148.234 209.743L148.402 209.583C148.752 209.267 149.14 209.015 149.549 208.829L103.741 163.023C99.89 159.241 96.8289 154.73 94.7379 149.755C92.6409 144.764 91.5602 139.406 91.5601 133.993C91.5602 128.58 92.6408 123.221 94.7379 118.23C96.8349 113.24 99.9065 108.718 103.773 104.929C105.535 103.203 108.36 103.217 110.105 104.962L182.056 176.909L197.793 161.172L193.17 156.55C187.774 151.044 184.676 143.7 184.488 136.011L184.479 135.266C184.479 127.308 187.6 119.666 193.17 113.982L213.064 94.0885ZM330.965 233.105C332.495 232.363 334.106 232.274 335.698 232.859C337.288 233.444 338.464 234.555 339.18 236.104C339.883 237.624 339.945 239.218 339.366 240.793C338.787 242.366 337.708 243.548 336.195 244.282C336.178 244.29 336.16 244.298 336.143 244.305C334.604 244.982 333.005 245.039 331.432 244.461C329.858 243.882 328.683 242.803 327.98 241.283C327.264 239.733 327.18 238.117 327.764 236.527C328.343 234.953 329.436 233.793 330.965 233.105ZM24.3414 220.861C25.9557 220.405 27.5405 220.587 29.0025 221.405C30.4927 222.239 31.5086 223.498 31.9693 225.128C32.4304 226.759 32.2191 228.358 31.3609 229.827L31.36 229.826C30.557 231.298 29.3177 232.299 27.7037 232.756C26.073 233.216 24.468 233.009 22.9781 232.175C21.5157 231.357 20.5319 230.103 20.0758 228.489C19.6201 226.876 19.7991 225.287 20.5924 223.803L20.6197 223.754C21.4682 222.302 22.7285 221.317 24.3414 220.861ZM107.115 114.699C105.463 116.849 104.09 119.206 103.035 121.716C101.401 125.603 100.56 129.777 100.56 133.993L100.57 134.783C100.668 138.729 101.504 142.625 103.035 146.268C104.566 149.912 106.764 153.235 109.514 156.067L110.059 156.615L110.082 156.636L173.008 219.559C175.059 221.609 178.178 222.75 181.532 222.764C184.86 222.778 188.279 221.678 190.894 219.435L201.376 208.954L107.115 114.699ZM323.49 176.985C324.28 176.346 325.231 176.079 326.249 176.172C327.287 176.268 328.189 176.728 328.859 177.534C329.543 178.317 329.819 179.279 329.725 180.297C329.719 180.366 329.712 180.436 329.706 180.505C329.699 180.573 329.693 180.643 329.687 180.712C329.68 180.783 329.667 180.854 329.65 180.923L339.089 193.347L356.911 183.961C356.919 183.799 356.923 183.642 356.923 183.49C356.894 183.074 356.876 182.683 356.874 182.319C356.865 181.204 357.3 180.223 358.146 179.495C358.955 178.733 359.968 178.388 361.075 178.49C362.178 178.592 363.107 179.114 363.762 180.004C364.426 180.865 364.671 181.882 364.519 182.948C364.516 182.972 364.511 182.997 364.506 183.021C364.311 184.03 364.143 184.921 364.003 185.694C363.901 186.451 363.817 187.193 363.751 187.92C363.687 188.61 363.637 189.319 363.603 190.047C363.602 190.798 363.608 191.67 363.619 192.662C363.619 192.687 363.619 192.712 363.618 192.737C363.576 193.801 363.137 194.731 362.375 195.464C362.362 195.475 362.349 195.487 362.336 195.499C361.516 196.234 360.505 196.543 359.422 196.443C358.396 196.348 357.472 195.916 356.811 195.082C356.285 194.449 355.986 193.714 355.936 192.919L343.685 199.408L347.62 204.51L354.931 205.183C354.932 205.139 354.935 205.096 354.936 205.052C354.913 204.531 354.92 204.033 354.963 203.56C355.052 202.599 355.472 201.768 356.174 201.127L356.319 201.001C357.102 200.316 358.064 200.041 359.083 200.134C360.186 200.236 361.115 200.758 361.77 201.648C362.434 202.51 362.679 203.527 362.527 204.592C362.523 204.62 362.518 204.649 362.512 204.676C362.324 205.614 362.162 206.45 362.026 207.186C361.93 207.874 361.852 208.546 361.792 209.202C361.735 209.82 361.688 210.493 361.654 211.221C361.656 211.94 361.663 212.796 361.674 213.788C361.675 213.813 361.674 213.838 361.673 213.863C361.632 214.927 361.194 215.858 360.43 216.59C360.418 216.602 360.405 216.614 360.392 216.626C359.572 217.36 358.561 217.67 357.478 217.57C356.394 217.47 355.456 216.98 354.785 216.109C354.774 216.095 354.764 216.081 354.754 216.067C354.132 215.199 353.889 214.193 354.086 213.136L354.136 212.823L326.939 210.321C326.936 210.511 326.928 210.705 326.91 210.9C326.814 211.937 326.355 212.84 325.548 213.511C325.533 213.524 325.517 213.537 325.502 213.549C324.692 214.169 323.738 214.413 322.738 214.321C321.654 214.221 320.716 213.731 320.045 212.86C319.34 211.989 319.088 210.941 319.301 209.841L319.302 209.837C319.493 208.871 319.655 208.036 319.788 207.333C319.888 206.604 319.967 205.929 320.024 205.305C320.084 204.651 320.13 203.978 320.161 203.285C320.161 202.536 320.155 201.683 320.141 200.725V200.714C320.132 199.599 320.568 198.618 321.414 197.89C322.222 197.128 323.236 196.784 324.342 196.885C325.444 196.987 326.374 197.507 327.03 198.397C327.695 199.26 327.939 200.278 327.787 201.343C327.778 201.408 327.764 201.471 327.747 201.534C327.669 201.814 327.613 202.119 327.583 202.451C327.579 202.492 327.573 202.533 327.566 202.574C327.561 202.604 327.555 202.634 327.549 202.664L337.517 203.581L328.479 191.837C328.249 192.381 327.893 192.864 327.412 193.264C326.604 193.936 325.633 194.221 324.596 194.126C323.514 194.026 322.575 193.538 321.903 192.666C321.211 191.77 320.949 190.711 321.165 189.595C321.364 188.549 321.532 187.638 321.672 186.861C321.775 186.106 321.859 185.366 321.925 184.644C321.989 183.954 322.038 183.245 322.072 182.517C322.072 181.769 322.067 180.917 322.052 179.961V179.95C322.043 178.83 322.483 177.846 323.335 177.118L323.49 176.985ZM4.01132 158.904C5.06119 158.908 6.03712 159.269 6.77304 160.072C7.44006 160.764 7.79254 161.62 7.83163 162.564L7.83554 162.758C7.83399 163.154 7.81302 163.54 7.77011 163.913C7.76011 164 7.74982 164.086 7.73984 164.173L40.565 179.088C41.1765 179.356 41.7273 179.767 42.1139 180.36C42.5006 180.953 42.6546 181.623 42.6519 182.292C42.6492 182.955 42.4839 183.615 42.0875 184.196C41.6984 184.766 41.1556 185.157 40.5611 185.417L7.55917 200.202C7.56333 200.256 7.56656 200.31 7.57187 200.362C7.64471 200.76 7.68571 201.157 7.68417 201.55C7.68011 202.572 7.31577 203.494 6.59921 204.226L6.60019 204.227C5.85902 205.024 4.88082 205.38 3.8287 205.376C2.72087 205.371 1.74974 204.933 1.01913 204.104C0.28205 203.304 -0.0515689 202.313 0.00643938 201.237L0.0132753 201.155C0.226622 199.202 0.331202 197.684 0.335541 196.582C0.340279 195.374 0.247611 193.855 0.0503847 192.014C0.0471631 191.984 0.0449472 191.954 0.0435488 191.923C-0.00600667 190.848 0.334263 189.858 1.07773 189.063C1.82948 188.26 2.80867 187.863 3.89706 187.867L4.08652 187.872C5.03108 187.913 5.92029 188.238 6.61777 188.941C7.35783 189.687 7.72633 190.63 7.72226 191.671C7.7219 191.761 7.71625 191.851 7.71347 191.943L10.8629 190.547L10.9283 173.786L7.79062 172.367C7.79265 172.458 7.7978 172.549 7.79745 172.638C7.79344 173.661 7.4268 174.59 6.67245 175.304C5.93623 176.072 4.97551 176.416 3.94199 176.412C2.853 176.407 1.87663 176.002 1.13144 175.193C0.394681 174.393 0.0617095 173.4 0.119721 172.325L0.126557 172.246C0.340435 170.255 0.444633 168.737 0.448822 167.67C0.453693 166.426 0.360588 164.908 0.163666 163.105C0.16027 163.074 0.158276 163.043 0.15683 163.011C0.10734 161.935 0.447967 160.949 1.15683 160.137L1.19199 160.099C1.94458 159.296 2.92394 158.9 4.01132 158.904ZM18.2428 187.259L29.5504 182.239L18.2838 177.131L18.2428 187.259ZM353.176 129.444C354.285 129.258 355.333 129.534 356.202 130.253C356.986 130.872 357.457 131.709 357.615 132.677L357.643 132.876L357.65 132.958C357.77 134.918 357.925 136.432 358.107 137.52C358.257 138.414 358.49 139.471 358.81 140.694L359.16 141.974L359.181 142.062C359.412 143.114 359.244 144.147 358.646 145.055C358.041 145.974 357.143 146.532 356.069 146.712C355.068 146.879 354.065 146.726 353.206 146.113C352.351 145.504 351.828 144.637 351.656 143.61C351.641 143.521 351.631 143.43 351.618 143.339L348.751 145.246L351.52 161.779L354.852 162.647C354.835 162.557 354.815 162.469 354.8 162.38C354.63 161.366 354.837 160.381 355.469 159.547C356.065 158.677 356.948 158.179 357.961 158.009C359.035 157.83 360.065 158.064 360.937 158.735C361.746 159.358 362.231 160.208 362.391 161.192L362.42 161.39L362.426 161.469C362.552 163.467 362.707 164.981 362.883 166.035C363.037 166.955 363.272 168.018 363.589 169.227L363.935 170.485L363.958 170.577C364.188 171.628 364.021 172.657 363.459 173.578C363.45 173.592 363.441 173.607 363.431 173.622C362.826 174.541 361.928 175.098 360.854 175.278C359.835 175.449 358.832 175.264 357.982 174.627C357.128 174.017 356.604 173.152 356.432 172.125C356.383 171.832 356.346 171.544 356.322 171.259L356.301 170.977C356.296 170.89 356.291 170.802 356.287 170.714L321.394 161.56V161.558C320.753 161.395 320.148 161.086 319.671 160.572C319.19 160.052 318.926 159.419 318.815 158.759C318.705 158.105 318.757 157.426 319.049 156.787C319.34 156.152 319.815 155.669 320.365 155.312L350.374 135.173C350.36 135.119 350.347 135.065 350.333 135.012C350.194 134.633 350.088 134.25 350.024 133.866C349.852 132.839 350.064 131.849 350.673 130.994C351.27 130.114 352.159 129.615 353.176 129.444ZM16.9596 128.844C17.8749 128.863 18.7605 128.972 19.6129 129.175C21.305 129.579 22.7631 130.302 23.9107 131.393L24.1363 131.617L24.1578 131.639C25.4061 132.983 25.8984 134.616 25.4752 136.391C25.1305 137.837 24.3414 139.029 22.9986 139.672C21.8571 140.218 20.6451 140.363 19.4205 140.071C18.4347 139.836 17.5813 139.333 16.8834 138.597L16.8424 138.556C16.3151 138.018 15.9627 137.381 15.7672 136.682C15.5083 136.759 15.2171 136.866 14.8922 137.012C14.2768 137.29 13.6192 137.793 12.9351 138.602C12.3445 139.369 11.8229 140.514 11.4371 142.131C11.1542 143.318 11.216 144.384 11.5807 145.372C11.9876 146.447 12.6591 147.398 13.6305 148.23C14.6181 149.056 15.8347 149.657 17.317 150.01L36.6451 154.62C36.6792 154.381 36.7094 154.141 36.7301 153.898L36.7486 153.755C36.9411 152.707 37.5081 151.848 38.3668 151.232C38.3807 151.222 38.3955 151.212 38.4098 151.203C39.326 150.592 40.3697 150.43 41.4273 150.682C42.4841 150.934 43.3416 151.549 43.8834 152.505C44.4307 153.468 44.567 154.54 44.192 155.607L44.193 155.608C43.8643 156.546 43.5826 157.354 43.3502 158.035C43.1503 158.733 42.9751 159.402 42.8228 160.041C42.67 160.681 42.5283 161.344 42.399 162.026C42.2924 162.766 42.1797 163.61 42.0582 164.558L42.0562 164.569C41.906 165.68 41.3297 166.59 40.3834 167.19L40.3844 167.191C39.4695 167.801 38.426 167.965 37.3668 167.713C36.3075 167.46 35.4499 166.843 34.9088 165.885C34.3739 164.939 34.2752 163.897 34.5767 162.863L34.6353 162.7C34.7242 162.489 34.8052 162.269 34.8824 162.041L15.5484 157.43C13.3278 156.901 11.3686 156.03 9.70273 154.796C8.09509 153.626 6.77953 152.222 5.77304 150.586C4.80319 149.008 4.16529 147.32 3.8707 145.532C3.56841 143.779 3.61459 142.051 4.01718 140.363C4.70018 137.499 5.89789 135.05 7.64706 133.072L7.66074 133.057C9.44863 131.087 11.6042 129.786 14.106 129.201C15.034 128.984 15.9661 128.864 16.898 128.844H16.9596ZM331.736 156.594L343.704 159.724L342.031 149.736L331.736 156.594ZM337.339 104.297C339.322 104.3 341.207 104.662 342.979 105.393C344.695 106.101 346.205 107.095 347.497 108.373C348.767 109.611 349.742 111.033 350.407 112.632C351.537 115.351 352.007 118.037 351.754 120.666C351.754 120.672 351.753 120.679 351.753 120.685C351.464 123.33 350.484 125.65 348.803 127.593C348.18 128.314 347.496 128.958 346.754 129.521C346.738 129.533 346.721 129.547 346.705 129.558C345.954 130.081 345.173 130.513 344.363 130.85C342.649 131.563 340.938 131.823 339.269 131.532C339.259 131.53 339.248 131.528 339.238 131.526C337.439 131.173 336.081 130.142 335.379 128.457C334.809 127.085 334.746 125.656 335.455 124.346C336.057 123.234 336.952 122.404 338.115 121.921C339.051 121.531 340.036 121.437 341.033 121.622L341.034 121.621C341.801 121.74 342.478 122.053 343.062 122.515C343.227 122.301 343.4 122.044 343.577 121.734C343.912 121.146 344.149 120.352 344.226 119.295C344.253 118.328 344.002 117.096 343.364 115.562C342.896 114.436 342.22 113.611 341.346 113.026C340.385 112.395 339.281 112.019 338.003 111.917C336.719 111.829 335.382 112.058 333.976 112.642L315.628 120.272C315.741 120.486 315.859 120.697 315.985 120.906C316.01 120.947 316.032 120.99 316.053 121.034C316.513 121.995 316.56 123.021 316.227 124.025C316.222 124.041 316.216 124.058 316.211 124.074C315.828 125.107 315.078 125.852 314.074 126.269C313.07 126.686 312.015 126.691 311.015 126.236C310.005 125.778 309.265 124.99 308.942 123.906C308.659 122.961 308.41 122.145 308.199 121.46C307.949 120.773 307.699 120.125 307.446 119.517C307.192 118.906 306.914 118.284 306.616 117.652C306.268 116.993 305.866 116.246 305.41 115.412L305.404 115.402C304.873 114.416 304.802 113.34 305.215 112.298L305.292 112.108C305.692 111.175 306.409 110.495 307.351 110.103C308.357 109.685 309.414 109.68 310.415 110.137L310.596 110.226C311.429 110.658 312.033 111.339 312.386 112.201L312.459 112.388L312.507 112.553C312.559 112.776 312.622 113.001 312.694 113.231L331.046 105.6C333.159 104.722 335.261 104.274 337.339 104.297ZM29.3101 83.3639C30.3403 82.9757 31.3955 83.0526 32.3697 83.5377C33.3112 84.0067 34.0244 84.7631 34.3287 85.8072C34.6405 86.7844 34.5497 87.7725 34.0943 88.6871C33.9186 89.0399 33.7297 89.376 33.526 89.692C33.4783 89.766 33.43 89.84 33.3824 89.9137L56.2291 117.806C56.6585 118.317 56.9697 118.929 57.0543 119.631C57.1388 120.335 56.981 121.003 56.6832 121.601C56.3873 122.195 55.9469 122.714 55.3346 123.06C54.7336 123.399 54.0736 123.511 53.4254 123.481L17.2887 122.147C17.2684 122.198 17.2475 122.247 17.2291 122.297C17.1476 122.583 17.0516 122.859 16.9371 123.124L16.8033 123.412C16.348 124.326 15.6138 124.993 14.6461 125.333C13.6286 125.719 12.5949 125.606 11.6539 125.137C10.6593 124.642 9.97902 123.816 9.69199 122.743C9.3894 121.703 9.53126 120.672 10.0562 119.737L10.0982 119.666C11.1531 118.009 11.9181 116.692 12.4098 115.705C12.9483 114.623 13.5374 113.22 14.1744 111.482L14.2086 111.398C14.6402 110.411 15.3829 109.675 16.4 109.292C17.4302 108.903 18.4845 108.98 19.4586 109.465C20.3653 109.917 21.0873 110.629 21.4234 111.631C21.757 112.627 21.6717 113.636 21.2076 114.568C21.1676 114.648 21.1225 114.727 21.0797 114.807L24.5201 114.949L31.9918 99.944L29.8053 97.2838L29.691 97.5309C29.2338 98.449 28.4908 99.122 27.4947 99.4274C26.4987 99.786 25.4878 99.6705 24.5641 99.2106C23.589 98.7249 22.8942 97.9292 22.5836 96.8746C22.2762 95.8308 22.4167 94.7946 22.9439 93.8561L22.985 93.7867C24.0569 92.0961 24.8215 90.7797 25.2975 89.8238C25.8517 88.7107 26.4408 87.3074 27.0611 85.6041L27.0963 85.5172C27.5275 84.5312 28.2668 83.7973 29.2623 83.3824C29.278 83.3759 29.2943 83.3699 29.3101 83.3639ZM32.5943 115.263L44.9557 115.761L37.109 106.198L32.5943 115.263ZM57.0982 50.3629C58.1926 50.2521 59.1912 50.5959 60.0084 51.3141C60.8252 52.0324 61.2958 52.98 61.3258 54.0807C61.3262 54.0978 61.3269 54.1153 61.3267 54.1324C61.3189 55.2013 60.9209 56.1568 60.1402 56.8942L60.1412 56.8951L59.9146 57.1178L80.4264 75.1549C80.5416 75.0014 80.6643 74.8507 80.7935 74.7037C81.4807 73.9225 82.3819 73.4605 83.4303 73.3932L83.4898 73.3903C84.5101 73.3658 85.4236 73.7323 86.1773 74.3951C86.9811 75.102 87.447 76.0285 87.4908 77.1051C87.5639 78.246 87.152 79.2615 86.3189 80.0377L86.315 80.0416C85.5914 80.711 84.968 81.2912 84.4459 81.7819C83.9367 82.311 83.4753 82.8092 83.0631 83.2779C82.6318 83.7684 82.2008 84.2841 81.7691 84.8238C81.3258 85.4313 80.8261 86.1277 80.2721 86.9127L80.2662 86.9215L80.2652 86.9205C79.6141 87.8294 78.6822 88.3666 77.566 88.4547C76.4668 88.5918 75.4488 88.2732 74.6168 87.5416C73.8254 86.8456 73.3831 85.9355 73.3375 84.8961L73.3336 84.6862C73.318 83.6188 73.7194 82.6712 74.4576 81.9117L74.6021 81.7819C74.8287 81.6024 75.0531 81.3886 75.274 81.1373L75.36 81.0465C75.3818 81.0255 75.4035 81.0041 75.4254 80.983L67.9068 74.3727L68.2994 89.1871C68.8059 88.8828 69.3786 88.7029 70.0025 88.6627C71.049 88.5957 72.0033 88.9358 72.7857 89.6237C73.6022 90.3417 74.0712 91.2873 74.1021 92.3854C74.1357 93.516 73.7275 94.5301 72.8932 95.3072C72.1202 96.0318 71.449 96.6635 70.8814 97.2057C70.3516 97.7585 69.8465 98.3111 69.3639 98.86C68.9072 99.3793 68.4507 99.9224 67.9957 100.489C67.554 101.094 67.0562 101.789 66.5035 102.572L66.4976 102.58C65.8451 103.491 64.9092 104.027 63.7916 104.114L63.7926 104.115C63.7872 104.115 63.7814 104.115 63.776 104.116C63.7632 104.117 63.7497 104.119 63.7369 104.12L63.7359 104.119C62.6625 104.213 61.6842 103.868 60.8814 103.162C60.1124 102.485 59.6545 101.602 59.5758 100.577C59.4679 99.5208 59.8132 98.5636 60.4996 97.7828C60.5447 97.7316 60.5896 97.6797 60.6353 97.6276C60.681 97.5756 60.7277 97.523 60.774 97.4703L60.9029 97.3395C60.9113 97.332 60.9207 97.3253 60.9293 97.318L60.6119 81.7184L40.6803 78.8151C40.5788 78.9413 40.484 79.0674 40.3932 79.191C40.1715 79.5449 39.9555 79.8704 39.7447 80.1647C39.0931 81.0741 38.1598 81.6097 37.0455 81.6979C35.9475 81.8351 34.9286 81.5192 34.0953 80.7867C33.2507 80.044 32.8041 79.0567 32.8121 77.9303C32.7964 76.8647 33.1955 75.9159 33.9351 75.1549L33.9879 75.1031C34.7386 74.404 35.397 73.7839 35.9635 73.2428C36.4936 72.6897 37.0011 72.1387 37.484 71.5895C37.9407 71.07 38.3961 70.5263 38.8512 69.9596C39.2941 69.3525 39.8044 68.6446 40.3805 67.8346L40.4264 67.774C41.0872 66.9378 41.9898 66.4442 43.0377 66.3014L43.0885 66.2955C44.1825 66.1847 45.1816 66.5284 45.9996 67.2477C46.7756 67.9301 47.2665 68.8235 47.3092 69.8844L47.317 70.0748C47.3307 70.8242 47.1372 71.5277 46.7418 72.1481L60.4664 74.1149L60.2896 67.6735L54.776 62.8248C54.7482 62.861 54.7192 62.8962 54.692 62.9322C54.405 63.3653 54.1067 63.7636 53.7935 64.1197C53.1253 64.8796 52.2485 65.3061 51.2506 65.3844C51.235 65.386 51.2192 65.3869 51.2037 65.3883C51.1997 65.3886 51.195 65.3899 51.191 65.3903L51.19 65.3893C50.1551 65.4807 49.2161 65.138 48.4478 64.4625C47.6036 63.72 47.1566 62.7337 47.1646 61.6071C47.149 60.54 47.55 59.5915 48.2887 58.8317L48.3492 58.7731C49.0544 58.1256 49.6774 57.5435 50.2203 57.0289C50.7024 56.5299 51.162 56.0336 51.5963 55.5397L52.2408 54.7877C52.456 54.5306 52.6764 54.2604 52.9029 53.9781C53.3226 53.3977 53.8186 52.7057 54.3902 51.902L54.4361 51.8414C55.0969 51.0051 55.9996 50.5116 57.0475 50.3688L57.0982 50.3629ZM312.318 59.9303C313.215 59.2832 314.258 59.064 315.337 59.3043C315.354 59.3077 315.373 59.3115 315.389 59.3151C316.367 59.5234 317.16 60.0651 317.73 60.8629L317.843 61.0289L317.886 61.0992C318.862 62.8035 319.672 64.0916 320.317 64.986C320.847 65.7209 321.524 66.5652 322.353 67.5201L323.234 68.5123L323.293 68.5817C323.965 69.4225 324.272 70.4228 324.138 71.5026C324.003 72.5955 323.444 73.4922 322.562 74.1285C321.74 74.7216 320.774 75.0286 319.731 74.86C318.695 74.6924 317.841 74.1483 317.231 73.3033C317.178 73.2305 317.129 73.1541 317.078 73.0787L315.352 76.0582L325.16 89.652L328.532 88.9537C328.476 88.881 328.419 88.8106 328.367 88.7379C327.769 87.9091 327.519 86.9427 327.709 85.9225C327.852 84.8693 328.425 84.0244 329.264 83.4186C330.148 82.7811 331.177 82.5359 332.255 82.7516C333.255 82.9519 334.066 83.4973 334.646 84.3092L334.759 84.4752L334.801 84.5426C335.8 86.2785 336.608 87.5674 337.233 88.4332C337.779 89.1894 338.459 90.0388 339.28 90.9821L340.148 91.9567L340.209 92.0279C340.882 92.8694 341.186 93.8674 341.09 94.941C341.089 94.958 341.087 94.9749 341.085 94.9918C340.949 96.083 340.392 96.9798 339.509 97.6168C338.673 98.2204 337.692 98.5009 336.647 98.3063C335.611 98.1387 334.757 97.5956 334.147 96.7506C333.914 96.4273 333.706 96.1028 333.523 95.7789C333.48 95.7029 333.436 95.6266 333.393 95.5504L298.056 102.803L298.055 102.802C297.409 102.94 296.73 102.93 296.075 102.68C295.413 102.428 294.894 101.979 294.503 101.436C294.114 100.898 293.86 100.267 293.838 99.5641C293.817 98.8664 294.03 98.223 294.365 97.6588L312.344 66.3092C312.307 66.2658 312.272 66.2223 312.235 66.1813C311.943 65.9025 311.678 65.6072 311.451 65.2916C310.852 64.4621 310.605 63.5015 310.753 62.4879C310.884 61.4082 311.465 60.5459 312.318 59.9303ZM305.128 93.7701L317.243 91.2731L311.318 83.0602L305.128 93.7701ZM281.079 49.527C282.742 49.3307 284.275 49.7664 285.592 50.8053C286.827 51.7789 287.596 53.0641 287.876 54.5934L287.925 54.902L287.932 54.9586C288.087 56.527 287.709 57.9763 286.805 59.236L286.618 59.485C285.579 60.8021 284.189 61.5833 282.526 61.7799C280.831 61.9801 279.27 61.5595 277.939 60.5104C276.622 59.4716 275.857 58.0732 275.678 56.4049C275.447 54.7207 275.862 53.1628 276.913 51.8307C277.962 50.4997 279.384 49.7272 281.079 49.527ZM235.378 8.74865C236.396 8.39224 237.432 8.47637 238.392 8.94786C238.414 8.95879 238.437 8.97101 238.459 8.98302C239.354 9.47955 240.147 9.91262 240.837 10.2838C241.529 10.6173 242.21 10.9297 242.88 11.2184C243.519 11.4932 244.182 11.759 244.867 12.0182C245.216 12.1322 245.593 12.2542 245.999 12.3834L247.349 12.8102L247.42 12.8346C248.358 13.1811 249.074 13.8232 249.539 14.6861L249.628 14.8619L249.65 14.9078C250.095 15.9146 250.076 16.9716 249.646 17.9713C249.23 18.9367 248.515 19.6923 247.489 20.0543L247.488 20.0533C246.741 20.3385 245.969 20.3887 245.215 20.194L247.593 33.8531L253.665 31.6901L256.567 24.9469C256.53 24.9337 256.493 24.9187 256.456 24.9059C255.949 24.7659 255.473 24.6036 255.034 24.4147C254.088 24.0074 253.399 23.2876 253.019 22.3336C252.611 21.3771 252.647 20.377 253.051 19.4381C253.492 18.4152 254.281 17.6897 255.337 17.3443C256.357 16.9861 257.395 17.0705 258.356 17.5426C258.381 17.5551 258.407 17.5687 258.431 17.5826C259.264 18.0523 260.011 18.4647 260.669 18.8219C261.292 19.1257 261.907 19.4083 262.511 19.6686C263.085 19.9154 263.714 20.1688 264.397 20.4274L266.837 21.1998L266.909 21.2242C267.845 21.5704 268.561 22.2113 269.026 23.0748L269.116 23.2496L269.137 23.2965C269.582 24.3033 269.563 25.3605 269.133 26.36C268.703 27.3603 267.947 28.0995 266.911 28.4684C266.895 28.4741 266.878 28.4798 266.862 28.485C265.845 28.8081 264.812 28.7285 263.868 28.2135L263.586 28.068L252.785 53.1549C252.965 53.2161 253.146 53.2851 253.327 53.3629C254.223 53.749 254.911 54.4017 255.313 55.2858L255.389 55.4654L255.411 55.5211C255.75 56.4828 255.686 57.4653 255.289 58.3883C254.865 59.3718 254.127 60.1014 253.117 60.4762L253.118 60.4772C253.112 60.4795 253.105 60.4807 253.099 60.483C253.088 60.4871 253.077 60.4927 253.066 60.4967L253.065 60.4957C252.019 60.8957 250.945 60.812 249.965 60.2692L249.962 60.2672C249.1 59.7858 248.355 59.3727 247.726 59.0279C247.067 58.7086 246.45 58.4254 245.877 58.1783C245.27 57.9171 244.64 57.6633 243.989 57.4186C243.279 57.1869 242.468 56.9299 241.556 56.6481L241.546 56.6451C240.479 56.3066 239.679 55.5842 239.251 54.5494C238.782 53.5487 238.769 52.483 239.207 51.4654C239.647 50.4427 240.436 49.717 241.493 49.3717C242.449 49.036 243.419 49.0897 244.329 49.486L244.511 49.5699L244.68 49.6676C244.922 49.8283 245.195 49.9755 245.501 50.1071C245.538 50.1234 245.576 50.1414 245.613 50.1608C245.638 50.1742 245.666 50.1885 245.695 50.2037L249.653 41.0084L235.686 45.9674C236.133 46.3544 236.483 46.843 236.714 47.4254C237.103 48.4007 237.073 49.4126 236.662 50.3688C236.231 51.3681 235.477 52.106 234.442 52.4752C233.377 52.857 232.29 52.7809 231.295 52.2311C230.366 51.7199 229.554 51.2788 228.861 50.9059C228.171 50.5733 227.491 50.263 226.82 49.9742C226.18 49.6989 225.518 49.4313 224.834 49.1725C224.125 48.9411 223.314 48.6844 222.404 48.4029L222.394 48.4C221.326 48.0614 220.527 47.3385 220.098 46.3033C219.654 45.2966 219.672 44.2406 220.102 43.2408C220.489 42.3434 221.142 41.6573 222.025 41.2555L222.205 41.1793C223.161 40.7716 224.161 40.8072 225.1 41.2115C225.163 41.2385 225.226 41.2662 225.29 41.2936C225.353 41.3208 225.418 41.3479 225.482 41.3756C225.548 41.4041 225.612 41.4386 225.673 41.4762L240.409 36.3463L237 16.4947C236.847 16.4372 236.697 16.384 236.55 16.3356C236.146 16.2345 235.771 16.131 235.427 16.0221C234.363 15.6847 233.562 14.9657 233.132 13.9313C232.661 12.9277 232.65 11.8607 233.087 10.8434C233.528 9.81998 234.318 9.0937 235.378 8.74865ZM88.2935 43.1891C89.5983 42.3138 91.057 41.9763 92.5982 42.1793L92.9078 42.2272L92.9635 42.2379C94.6067 42.5939 95.9338 43.4861 96.8678 44.8776C97.8023 46.2703 98.1209 47.8334 97.7974 49.4772C97.4677 51.1521 96.5869 52.5087 95.1803 53.4528C93.7717 54.3979 92.1869 54.6923 90.525 54.3326C88.8763 54.0263 87.5408 53.1579 86.606 51.7653C85.6623 50.3588 85.3601 48.7693 85.69 47.0934C86.0138 45.4493 86.901 44.1235 88.2935 43.1891ZM144.406 3.98302C145.352 3.62734 146.327 3.62327 147.261 3.97325L147.448 4.04845L147.495 4.06896C148.49 4.53617 149.171 5.3452 149.504 6.38243C149.818 7.36555 149.779 8.38349 149.27 9.31603L149.272 9.31701C148.791 10.2501 148.008 10.8929 147.016 11.2106C146.637 11.332 146.264 11.4299 145.899 11.5035C145.813 11.5209 145.726 11.5379 145.64 11.5553L141.583 47.401C141.513 48.0588 141.293 48.7013 140.852 49.2467C140.407 49.7974 139.818 50.1503 139.182 50.3541C138.551 50.5562 137.872 50.6031 137.197 50.4059C136.534 50.212 135.993 49.8168 135.562 49.3307L111.314 22.5026C111.263 22.5234 111.213 22.5427 111.165 22.5641C110.808 22.7561 110.444 22.9173 110.071 23.0367C109.098 23.3482 108.108 23.2865 107.19 22.8307C107.182 22.8269 107.174 22.8228 107.166 22.819C107.156 22.8141 107.146 22.8102 107.136 22.8053C106.18 22.3414 105.558 21.5327 105.243 20.5494C104.902 19.4854 105.023 18.4164 105.599 17.4586C106.134 16.5243 106.97 15.9122 108 15.6383L108.08 15.6188C110.003 15.219 111.48 14.8495 112.53 14.5133C113.68 14.145 115.097 13.5882 116.787 12.8326L116.871 12.7975C117.879 12.4185 118.925 12.4374 119.91 12.899C120.906 13.3668 121.586 14.1767 121.918 15.2125C122.227 16.1784 122.219 17.1923 121.736 18.1315L121.735 18.1324C121.254 19.0659 120.471 19.7069 119.48 20.024C119.394 20.0515 119.306 20.0746 119.218 20.1002L121.516 22.6647L137.481 17.5543L137.862 14.1324C137.776 14.1624 137.691 14.195 137.606 14.2223C136.631 14.5343 135.631 14.4719 134.717 13.9713C133.763 13.5066 133.143 12.6999 132.829 11.7193C132.497 10.6833 132.581 9.62932 133.121 8.66954C133.654 7.72195 134.495 7.10048 135.535 6.82384L135.613 6.80529C137.573 6.39431 139.049 6.02433 140.066 5.69884C141.25 5.31983 142.665 4.7627 144.319 4.01915C144.347 4.00634 144.377 3.99403 144.406 3.98302ZM185.643 0.650012C186.473 0.0947861 187.414 -0.0999888 188.384 0.0474726L188.582 0.0816523L188.663 0.100207C190.565 0.588296 192.054 0.906278 193.145 1.067C194.042 1.19907 195.119 1.30252 196.381 1.37364L197.707 1.43419L197.797 1.44005C198.869 1.54371 199.8 2.02116 200.481 2.86974C201.169 3.72748 201.425 4.75295 201.266 5.83068C201.118 6.8356 200.663 7.74124 199.816 8.37072C198.974 8.99635 197.989 9.22955 196.958 9.07775C196.868 9.06462 196.779 9.04565 196.689 9.0299L197.623 12.3443L214.208 14.7867L216.057 11.8834C215.966 11.8725 215.876 11.8643 215.787 11.8512C214.772 11.7016 213.9 11.2042 213.299 10.3492C212.651 9.51377 212.448 8.51791 212.598 7.49962C212.757 6.42247 213.297 5.51356 214.204 4.89025C215.101 4.27388 216.13 4.08593 217.185 4.29552C217.211 4.30068 217.238 4.30657 217.263 4.3131C219.203 4.80711 220.692 5.12524 221.749 5.28087C222.671 5.41672 223.754 5.52055 225.003 5.58947L226.306 5.64708L226.401 5.65294C227.473 5.75661 228.4 6.23313 229.103 7.0504C229.114 7.0634 229.126 7.07707 229.136 7.09044C229.825 7.94939 230.079 8.97532 229.92 10.0514C229.77 11.0723 229.287 11.97 228.419 12.5836L228.42 12.5846C227.576 13.2112 226.59 13.4422 225.561 13.2906C225.17 13.233 224.792 13.1573 224.429 13.0621C224.344 13.0398 224.259 13.0171 224.173 12.9947L204.745 43.3893L204.744 43.3883C204.392 43.9487 203.911 44.4294 203.275 44.7252C202.633 45.0236 201.949 45.0813 201.288 44.984C200.631 44.8873 200.002 44.6295 199.483 44.1549C198.974 43.6889 198.661 43.0961 198.489 42.4703L188.535 7.70568C188.479 7.70201 188.424 7.69711 188.371 7.69493C188.076 7.70605 187.785 7.70081 187.5 7.67443L187.183 7.63732C186.154 7.48551 185.276 6.97915 184.65 6.13634C183.996 5.29869 183.794 4.29897 183.944 3.27892C184.105 2.18377 184.676 1.28433 185.6 0.678332C185.611 0.670625 185.623 0.662464 185.634 0.654895C185.637 0.653119 185.64 0.651808 185.643 0.650012ZM167.178 0.687121C169.931 0.472167 172.474 0.801283 174.775 1.71446L175.232 1.90489L175.25 1.91271C177.673 3.00933 179.574 4.66095 180.899 6.8629C181.329 7.57742 181.689 8.31705 181.976 9.08068L182.095 9.40978L182.114 9.46837C182.377 10.345 182.546 11.2213 182.614 12.0953C182.758 13.946 182.474 15.6532 181.678 17.149C181.673 17.1583 181.669 17.1682 181.664 17.1774C180.769 18.7769 179.366 19.7478 177.546 19.8902C176.157 19.9988 174.86 19.6672 173.859 18.735L173.663 18.5397C172.792 17.6207 172.283 16.512 172.185 15.2574C172.106 14.2473 172.322 13.2802 172.808 12.3893C173.16 11.6975 173.667 11.1506 174.288 10.7399C174.136 10.5172 173.945 10.2725 173.706 10.0084C173.253 9.5081 172.573 9.0366 171.593 8.63439C170.683 8.30729 169.432 8.16214 167.773 8.29161C166.556 8.38669 165.561 8.77354 164.732 9.42443C163.837 10.1397 163.14 11.067 162.646 12.2418L162.558 12.4674C162.137 13.6063 161.968 14.8786 162.08 16.3072L163.627 36.1158C163.864 36.0751 164.103 36.03 164.34 35.9752L164.482 35.9498C165.538 35.8113 166.528 36.087 167.378 36.7145C167.392 36.7246 167.406 36.7352 167.42 36.7457C168.282 37.4298 168.758 38.3742 168.842 39.4586C168.927 40.5429 168.605 41.5499 167.859 42.36L167.858 42.359C167.109 43.1745 166.133 43.6318 165.003 43.6022C164.012 43.5772 163.157 43.5589 162.438 43.5465C161.71 43.5707 161.019 43.6087 160.365 43.6598C159.707 43.7112 159.031 43.7809 158.339 43.8678C157.604 43.9933 156.767 44.1439 155.83 44.319L155.819 44.3209C154.699 44.5219 153.638 44.2432 152.768 43.4996C151.933 42.8186 151.472 41.8891 151.388 40.8229C151.303 39.7369 151.627 38.7305 152.373 37.9215C153.11 37.1217 154.071 36.7095 155.148 36.6793L155.321 36.6842C155.548 36.704 155.782 36.713 156.022 36.7164L154.475 16.902C154.297 14.6229 154.525 12.4884 155.191 10.5221C155.81 8.63599 156.742 6.95536 157.989 5.49669C159.119 4.17452 160.433 3.10147 161.924 2.28868L162.225 2.1295C163.797 1.30723 165.452 0.822076 167.178 0.687121ZM126.922 28.6705L135.187 37.8756L136.568 25.5826L126.922 28.6705ZM203.197 32.0221L209.851 21.5934L199.832 20.1178L203.197 32.0221Z" fill="black"/>
</svg>